<svg width="128" height="128" viewBox="0 0 128 128" fill="none" xmlns="http://www.w3.org/2000/svg" role="img" aria-label="智能考研">
  <rect width="128" height="128" rx="22" fill="#0F766E"/>
  <path d="M34 36.5C45.5 31.8 55.2 31.8 64 37.4C72.8 31.8 82.5 31.8 94 36.5V88.8C82.5 84.1 72.8 84.2 64 90C55.2 84.2 45.5 84.1 34 88.8V36.5Z" fill="#FFFDF8"/>
  <path d="M64 37.4V90" stroke="#0F766E" stroke-width="4.8" stroke-linecap="round"/>
  <path d="M44 50.5C50 48.9 55.3 49.4 60 52M44 64C50 62.4 55.3 62.9 60 65.5M84 50.5C78 48.9 72.7 49.4 68 52M84 64C78 62.4 72.7 62.9 68 65.5" stroke="#0F766E" stroke-width="4.8" stroke-linecap="round"/>
  <circle cx="92" cy="34" r="7" fill="#DDB96F"/>
  <circle cx="96.5" cy="77" r="4.5" fill="#DDB96F"/>
  <circle cx="31.5" cy="67" r="4.5" fill="#DDB96F"/>
  <path d="M35.5 67L57.5 54.5M70.5 55L92 34M74 68.5L96.5 77" stroke="#DDB96F" stroke-width="3" stroke-linecap="round"/>
</svg>
